<svg xmlns="http://www.w3.org/2000/svg" viewBox="0 0 512 512"><!--!Font Awesome Free 6.5.2 by @fontawesome - https://fontawesome.com License - https://fontawesome.com/license/free Copyright 2024 Fonticons, Inc.--><path d="M383.9 308.3L407.8 245.7c4-10.5 1.4-22.2-6.8-29.7l-39.4-36.7c-6.4-6-15.7-8.2-24.6-5.2l-49.9 16.7c-13.1 4.4-26.7-2.8-31.1-15.9L232.4 84.2c-4.4-13.1-15.9-22.4-29.1-22.4H128c-17.7 0-32 14.3-32 32V160c0 17.7 14.3 32 32 32h32v32c0 17.7 14.3 32 32 32h32v32c0 17.7 14.3 32 32 32h32v32c0 17.7 14.3 32 32 32h32c17.7 0 32-14.3 32-32V308.3zM128 288v-64h32v64h-32zm64 0v-64h32v64h-32zm64 0v-64h32v64h-32zm64 0v-64h32v64h-32zM48 352c-26.5 0-48 21.5-48 48v64c0 17.7 14.3 32 32 32H480c17.7 0 32-14.3 32-32V400c0-26.5-21.5-48-48-48H48z"/></svg>