<svg xmlns="http://www.w3.org/2000/svg" fill="none" viewBox="0 0 24 24" stroke-width="1.5" stroke="currentColor">
  <path stroke-linecap="round" stroke-linejoin="round" d="M3.75 3.75v4.5m0-4.5h4.5m-4.5 0L9 9m3.75-3.75L9 9m0 0V3.75m0 5.25v4.5m0-4.5h4.5m-4.5 0L9 9m3.75-3.75L9 9m0 0V3.75m0 5.25v4.5m0-4.5h4.5m-4.5 0L9 9m3.75-3.75L9 9m0 0V3.75m0 5.25v4.5m0-4.5h4.5m-4.5 0L9 9m3.75-3.75L9 9m0 0V3.75m0 5.25v4.5m0-4.5h4.5m-4.5 0l-3.75-3.75m9 9.75L15 15m0 0V9.75m0 5.25H9.75m5.25 0L15 15m0 0V9.75m0 5.25H9.75m5.25 0L15 15m0 0V9.75m0 5.25H9.75m5.25 0L15 15m0 0V9.75m0 5.25H9.75m5.25 0L15 15m0 0v-5.25m0 5.25h-5.25" />
</svg>