<svg xmlns="http://www.w3.org/2000/svg" width="24" height="24" viewBox="0 0 24 24" fill="currentColor" stroke="currentColor" stroke-width="2" stroke-linecap="round" stroke-linejoin="round" class="feather feather-bulb-on">
    <path d="M19 14h-1.4c-.6-2-.8-4.2-.8-5.7 0-3.3 2-6 5-6 0-.6 0-1-.5-1-1.3 0-2 0-3.5 0"></path>
    <path d="M10 20c0 1.1.9 2 2 2s2-.9 2-2"></path>
    <path d="M12 2c-3.3 0-6 2-6 5 0 1.5-.2 3.7-.8 5.7H5c-.6 0-1 .4-1 1v2c0 .6.4 1 1 1h14c.6 0 1-.4 1-1v-2c0-.6-.4-1-1-1h-.4c-.6-2-.8-4.2-.8-5.7 0-3.3-2-6-5-6z"></path>
</svg>